<?xml version="1.0" encoding="iso-8859-1"?>
<!-- Generator: Adobe Illustrator 19.0.0, SVG Export Plug-In . SVG Version: 6.00 Build 0)  -->
<svg version="1.1" id="Capa_1" xmlns="http://www.w3.org/2000/svg" xmlns:xlink="http://www.w3.org/1999/xlink" x="0px" y="0px"
	 viewBox="0 0 512.159 512.159" style="enable-background:new 0 0 512.159 512.159;" xml:space="preserve">
<path style="fill:#40596B;" d="M167.509,89.6l80,129.067l6.4,10.667l59.733,96c0,0,81.067,105.6,84.267,153.6
	c4.267,48,38.4,29.867,38.4,29.867s35.2-17.067,66.133-51.2c18.133-20.267-12.8-60.8-41.6-89.6c-28.8-28.8-54.4-60.8-75.733-94.933
	L384.042,272c-18.133-27.733-33.067-56.533-46.933-86.4c-3.2-8.533-7.467-17.067-12.8-26.667c-1.067-3.2-3.2-6.4-5.333-9.6
	C293.376,93.867,258.176,32,258.176,32L167.509,89.6z"/>
<path style="fill:#334A5E;" d="M167.509,89.6l80,129.067l6.4,10.667l39.467-51.2l32-20.267c-1.067-3.2-3.2-6.4-5.333-9.6
	C293.376,93.867,258.176,32,258.176,32L167.509,89.6z"/>
<path style="fill:#CDD6E0;" d="M156.842,329.6l125.867-163.2c-26.667-40.533-52.267-81.067-78.933-121.6L4.309,90.667
	C13.909,189.867,70.442,278.4,156.842,329.6z"/>
<path style="fill:#ACB3BA;" d="M203.776,44.8L273.109,0c39.467,30.933,66.133,73.6,77.867,121.6l-69.333,44.8L203.776,44.8z"/>
<path style="fill:#CDD6E0;" d="M4.309,90.667l200.533-46.933l77.867,121.6L156.842,329.6C70.442,278.4,13.909,189.867,4.309,90.667z
	"/>
<path style="fill:#F2F2F2;" d="M4.309,90.667l13.867-3.2c11.733,94.933,66.133,180.267,148.267,230.4l-8.533,11.733
	C70.442,278.4,13.909,189.867,4.309,90.667z"/>
<g>
</g>
<g>
</g>
<g>
</g>
<g>
</g>
<g>
</g>
<g>
</g>
<g>
</g>
<g>
</g>
<g>
</g>
<g>
</g>
<g>
</g>
<g>
</g>
<g>
</g>
<g>
</g>
<g>
</g>
</svg>
