<svg height="511pt" viewBox="-17 0 511 511.9837" width="511pt" xmlns="http://www.w3.org/2000/svg"><path d="m109.980469 511.984375c13.113281-.015625 26.042969-3.066406 37.777343-8.917969l46.402344-23.203125c28.1875-13.808593 61.175782-13.808593 89.363282 0l46.402343 23.203125c26.1875 13.085938 57.28125 11.679688 82.179688-3.710937 24.902343-15.394531 40.058593-42.578125 40.0625-71.851563v-13.148437c.191406-42.121094-27.46875-79.296875-67.867188-91.214844-13.878906-4.160156-26.332031-12.097656-35.957031-22.929687l-26.070312-29.328126c-18.074219-20.324218-43.972657-31.957031-71.167969-31.964843h-24.542969c-27.195312.007812-53.09375 11.636719-71.167969 31.957031l-26.070312 29.335938c-9.628907 10.832031-22.078125 18.769531-35.957031 22.929687-40.398438 11.917969-68.0625 49.09375-67.867188 91.214844v13.148437c.046875 46.636719 37.84375 84.433594 84.480469 84.480469zm-67.414063-97.628906c-.167968-34.570313 22.539063-65.089844 55.699219-74.863281 16.910156-5.070313 32.082031-14.746094 43.808594-27.949219l26.070312-29.328125c14.835938-16.679688 36.09375-26.222656 58.417969-26.230469h24.542969c22.324219.007813 43.578125 9.550781 58.417969 26.230469l26.070312 29.328125c11.726562 13.203125 26.894531 22.878906 43.808594 27.949219 33.160156 9.773437 55.867187 40.292968 55.699218 74.863281v13.148437c-.003906 23.359375-12.101562 45.050782-31.976562 57.332032-19.871094 12.28125-44.683594 13.398437-65.578125 2.957031l-46.394531-23.203125c-32.9375-16.464844-71.699219-16.464844-104.636719 0l-46.394531 23.203125c-20.894532 10.441406-45.710938 9.324219-65.582032-2.957031-19.871093-12.28125-31.96875-33.972657-31.972656-57.332032zm0 0"/><path d="m250.191406 158.617188c-2.902344 15.429687-1.1875 31.367187 4.933594 45.824218 5.007812 13.046875 16.292969 22.65625 29.96875 25.523438 1.957031.335937 3.9375.503906 5.921875.503906 23.433594 0 45.011719-23.414062 50.601563-56.320312 2.890624-15.429688 1.171874-31.367188-4.941407-45.824219-4.546875-13.367188-16.054687-23.167969-29.972656-25.535157-13.921875-2.363281-28.019531 3.082032-36.730469 14.195313-10.550781 11.628906-17.429687 26.109375-19.78125 41.632813zm50.722656-39.253907c.984376.003907 1.964844.085938 2.933594.25 8.042969 2.019531 14.535156 7.933594 17.296875 15.75 4.714844 11.355469 5.980469 23.847657 3.644531 35.917969-4.308593 25.335938-21.265624 44.46875-36.828124 41.8125-8.042969-2.019531-14.535157-7.933594-17.296876-15.75-4.71875-11.351562-5.984374-23.84375-3.644531-35.910156 1.789063-12.152344 7.125-23.507813 15.335938-32.648438 4.644531-5.53125 11.347656-8.925781 18.558593-9.402344zm0 0"/><path d="m446.945312 174.105469c-13.132812-5.550781-28.203124-3.910157-39.835937 4.335937-13.609375 8.855469-24.410156 21.414063-31.128906 36.199219-7.234375 14.535156-10.171875 30.835937-8.464844 46.984375.949219 14.214844 9.179687 26.929688 21.761719 33.613281 4.714844 2.253907 9.875 3.421875 15.101562 3.410157 20.550782 0 42.976563-16.808594 55.859375-43.894532 16.164063-33.980468 10.316407-69.402344-13.292969-80.648437zm-2.125 73.34375c-11.648437 24.476562-33.714843 39.324219-48.214843 32.429687-7.152344-4.4375-11.695313-12.078125-12.175781-20.480468-1.273438-12.871094 1.144531-25.839844 6.972656-37.386719 5.277344-11.816407 13.820312-21.882813 24.625-29.011719 4.761718-3.082031 10.25-4.851562 15.914062-5.121094 2.65625-.015625 5.28125.566406 7.679688 1.707032 14.464844 6.828124 16.855468 33.332031 5.199218 57.863281zm0 0"/><path d="m73.40625 298.648438c5.222656.027343 10.386719-1.121094 15.105469-3.359376 23.609375-11.238281 29.457031-46.660156 13.292969-80.632812-16.160157-33.96875-47.34375-51.78125-70.953126-40.53125-23.613281 11.246094-29.464843 46.667969-13.304687 80.628906 12.902344 27.070313 35.328125 43.894532 55.859375 43.894532zm-35.226562-109.132813c14.507812-6.882813 36.566406 7.980469 48.214843 32.429687 11.648438 24.445313 9.257813 50.984376-5.222656 57.878907-14.480469 6.898437-36.558594-7.941407-48.203125-32.375-11.648438-24.429688-9.269531-51.035157 5.210938-57.933594zm0 0"/><path d="m170.992188 102.800781c-13.675782 2.867188-24.964844 12.484375-29.96875 25.53125-6.117188 14.457031-7.835938 30.398438-4.941407 45.824219 2.363281 15.519531 9.25 29.996094 19.800781 41.617188 7.808594 8.949218 18.96875 14.265624 30.835938 14.695312 1.972656-.003906 3.9375-.171875 5.882812-.503906 13.691407-2.851563 25-12.464844 30.019532-25.523438 6.113281-14.457031 7.828125-30.394531 4.929687-45.824218-6.089843-35.652344-30.855469-60.160157-56.558593-55.816407zm39.679687 58.675781c2.339844 12.070313 1.070313 24.558594-3.652344 35.910157-2.761719 7.816406-9.253906 13.730469-17.296875 15.75-8.25.742187-16.324218-2.695313-21.511718-9.15625-8.207032-9.148438-13.53125-20.519531-15.308594-32.679688-2.332032-12.074219-1.0625-24.5625 3.652344-35.917969 2.761718-7.816406 9.257812-13.730468 17.296874-15.753906.96875-.167968 1.953126-.25 2.9375-.246094 14.777344 0 29.867188 18.328126 33.882813 42.09375zm0 0"/><path d="m288.078125 86.785156c7.019531-1.816406 14.339844-2.132812 21.488281-.929687 8.75 1.519531 16.972656 5.234375 23.894532 10.800781 2.773437 2.160156 6.589843 2.394531 9.609374.59375 3.019532-1.804688 4.625-5.273438 4.042969-8.742188-5.265625-30.351562-17.082031-65.867187-26.898437-80.84375-3.839844-5.84375-10.863282-8.738281-17.703125-7.296874-6.84375 1.441406-12.105469 6.921874-13.261719 13.816406-.617188 3.582031-1.296875 7.894531-2.058594 12.613281-2.472656 15.554687-5.878906 36.863281-9.386718 49.414063-.820313 2.929687-.019532 6.078124 2.101562 8.257812 2.125 2.183594 5.246094 3.066406 8.199219 2.324219zm15.976563-57.308594c.734374-4.652343 1.414062-8.902343 1.875-12.46875 9.347656 17.640626 16.238281 36.472657 20.480468 55.980469-8.113281-3.257812-16.777344-4.929687-25.523437-4.925781-1.203125 0-2.429688 0-3.652344.101562 2.578125-12.125 4.867187-26.488281 6.820313-38.6875zm0 0"/><path d="m477.144531 156.996094c-2.371093-30.261719-9.792969-59.910156-21.957031-87.722656-3.238281-6.5-10.246094-10.234376-17.449219-9.285157-7.199219.945313-13.007812 6.359375-14.457031 13.476563-4.773438 24.253906-10.921875 48.214844-18.414062 71.773437-1.050782 3.019531-.324219 6.375 1.878906 8.691407 2.207031 2.316406 5.523437 3.203124 8.589844 2.300781 12.828124-4.09375 26.730468-3.214844 38.9375 2.464843 3.246093 1.578126 6.3125 3.496094 9.148437 5.726563 2.667969 2.058594 6.296875 2.351563 9.261719.753906 2.96875-1.597656 4.714844-4.792969 4.460937-8.152343zm-45.226562-20.367188c-2.160157 0-4.34375.101563-6.539063.304688 6.65625-22.527344 12.203125-48.519532 14.507813-60.132813 9.125 20.699219 15.3125 42.570313 18.382812 64.980469-8.351562-3.425781-17.292969-5.167969-26.316406-5.128906zm0 0"/><path d="m5.019531 165.273438c2.972657 1.601562 6.609375 1.296874 9.277344-.777344 2.851563-2.261719 5.941406-4.203125 9.214844-5.792969 12.167969-5.667969 26.023437-6.566406 38.820312-2.507813 3.066407.898438 6.378907.003907 8.578125-2.3125 2.203125-2.316406 2.925782-5.667968 1.875-8.6875-7.488281-23.523437-13.628906-47.457031-18.398437-71.679687-1.449219-7.117187-7.257813-12.53125-14.460938-13.476563-7.199219-.945312-14.210937 2.785157-17.445312 9.285157-12.179688 27.832031-19.601563 57.507812-21.964844 87.792969-.246094 3.371093 1.519531 6.570312 4.503906 8.15625zm32.648438-88.378907c2.363281 11.578125 7.9375 37.546875 14.585937 60.058594-11.191406-1.070313-22.472656.613281-32.863281 4.90625 3.070313-22.394531 9.222656-44.253906 18.277344-64.964844zm0 0"/><path d="m190.476562 26.820312c-.753906-4.734374-1.445312-9.054687-2.058593-12.644531-1.160157-6.894531-6.421875-12.371093-13.265625-13.8125-6.839844-1.4375-13.863282 1.457031-17.699219 7.300781-9.824219 15-21.652344 50.527344-26.933594 80.878907-.609375 3.488281 1 6.988281 4.042969 8.800781s6.886719 1.554688 9.660156-.644531c6.914063-5.585938 15.140625-9.3125 23.894532-10.835938 7.132812-1.207031 14.441406-.890625 21.445312.921875 2.949219.738282 6.070312-.148437 8.191406-2.328125 2.121094-2.179687 2.921875-5.324219 2.097656-8.253906-3.496093-12.550781-6.894531-33.84375-9.375-49.382813zm-25.199218 42.214844c-4.8125.8125-9.523438 2.140625-14.046875 3.96875 4.257812-19.476562 11.109375-38.296875 20.367187-55.953125.597656 3.539063 1.28125 7.808594 2.023438 12.464844 1.945312 12.195313 4.265625 26.539063 6.785156 38.65625-5.058594-.289063-10.136719 0-15.128906.863281zm0 0"/></svg>