<svg xmlns="http://www.w3.org/2000/svg" viewBox="0 -37 454.752 454">
	<g transform="matrix(0.9999 0 0 0.9999 0.0227376 0.019)">
		<path d="m316.304688 206.375c2.160156-.992188 4.320312-1.992188 6.398437-3.054688 2.320313-1.167968 4.65625-2.304687 6.921875-3.558593 3.351562-1.851563 6.582031-3.851563 9.800781-5.882813 2.039063-1.277344 4.132813-2.503906 6.117188-3.863281 3.472656-2.398437 6.785156-4.910156 10.082031-7.472656 1.597656-1.230469 3.199219-2.398438 4.75-3.640625 9.496094-7.859375 18.234375-16.601563 26.089844-26.101563 1.289062-1.554687 2.398437-3.199219 3.671875-4.800781 2.550781-3.28125 5.085937-6.574219 7.429687-10.03125 1.363282-2 2.59375-4.105469 3.890625-6.160156 2.015625-3.199219 4-6.402344 5.855469-9.769532 1.246094-2.269531 2.398438-4.625 3.558594-6.949218 1.066406-2.113282 2.058594-4.265625 3.039062-6.402344-19.054687-10.070312-36.945312-22.210938-53.34375-36.199219-1.191406-.382812-65.46875-64.074219-65.46875-64.074219l-79.203125 79.203126s57.882813 58.09375 62.34375 63.277343c14.757813 16.988281 27.527344 35.601563 38.066407 55.480469zm0 0" data-original="#000000" class="active-path" fill="#000000" />
		<path d="m89.015625 251.457031c-31.398437 22.050781-58.449219 49.714844-79.792969 81.597657l-9.222656 13.730468 33.703125 33.703125 6.113281-9.265625c22.472656-33.882812 51.058594-63.28125 84.304688-86.6875l52.496094-36.96875c33.320312-23.410156 61.710937-53.144531 83.558593-87.511718l2.015625-3.144532c-.328125-.359375-.648437-.726562-.976562-1.09375-2.695313-2.945312-5.445313-5.871094-8.421875-8.839844l-24.082031-24.089843-.160157.25c-23.039062 36.296875-53.039062 67.675781-88.261719 92.328125zm0 0" data-original="#000000" class="active-path" fill="#000000" />
		<path d="m454.753906 126.511719c-9.089844-3.199219-17.875-6.726563-26.265625-10.625-1.039062 2.265625-2.289062 4.394531-3.398437 6.609375-1.257813 2.480468-2.480469 4.976562-3.816406 7.390625-1.992188 3.609375-4.144532 7.097656-6.328126 10.570312-1.394531 2.214844-2.722656 4.464844-4.191406 6.621094-2.523437 3.691406-5.234375 7.203125-8 10.738281-1.355468 1.742188-2.609375 3.558594-4 5.253906-4.144531 5-8.488281 9.824219-13.058594 14.402344-.136718.136719-.253906.28125-.390624.414063-4.65625 4.648437-9.550782 9.058593-14.625 13.265625-1.71875 1.421875-3.558594 2.695312-5.320313 4.0625-3.488281 2.714844-6.992187 5.410156-10.65625 7.914062-2.183594 1.488282-4.472656 2.839844-6.71875 4.253906-3.433594 2.160157-6.871094 4.289063-10.398437 6.257813-2.464844 1.367187-5.011719 2.617187-7.539063 3.894531-2.191406 1.097656-4.285156 2.328125-6.527344 3.359375 3.863281 8.386719 7.425781 17.167969 10.632813 26.242188 56.097656-20.339844 100.273437-64.523438 120.601562-120.625zm0 0" data-original="#000000" class="active-path" fill="#000000" />
		<path d="m329.113281 19.6875 25.992188 26.023438c2.664062 2.648437 5.503906 5.089843 8.269531 7.617187l18.984375-18.992187-33.933594-33.960938zm0 0" data-original="#000000" class="active-path" fill="#000000" />
	</g>
</svg>
