<svg height="511pt" viewBox="-35 0 511 511.99975" width="511pt" xmlns="http://www.w3.org/2000/svg"><path d="m355.789062 434.144531c-2.835937-2.835937-4.398437-6.605469-4.398437-10.613281v-122.632812h-116.472656l65.6875-21.613282-72.546875-120.566406-3.867188-12.648438 186.589844-57.976562c23.738281-7.257812 37.148438-32.476562 29.890625-56.21875-3.519531-11.5-11.300781-20.941406-21.917969-26.585938-10.617187-5.648437-22.800781-6.816406-34.339844-3.292968l-358.734374 110.71875 26.316406 86.070312 57.402344-17.550781 3.96875 12.96875 11.25 106.695313h-43.355469v122.632812c0 4.007812-1.558594 7.777344-4.394531 10.613281l-76.367188 77.855469h162.015625l23.796875-23.796875 23.800781 23.796875h222.039063zm-201.523437-138.304687-9.90625-93.910156 63.070313-19.28125 48.066406 79.882812zm23.695313-198.335938 17.546874 57.40625-57.40625 17.546875-17.546874-57.402343zm215.269531-66.816406c3.832031-1.171875 7.890625-.78125 11.433593 1.101562 3.539063 1.882813 6.132813 5.027344 7.304688 8.863282 2.417969 7.914062-2.050781 16.320312-10.03125 18.757812l-186.519531 57.957032-8.882813-29.058594zm-321.308594 130.621094-8.785156-28.742188 28.679687-8.851562 8.808594 28.816406zm150.621094 320.675781-36.230469-36.230469-36.230469 36.230469h-78.097656l26.15625-26.667969c8.472656-8.5 13.136719-19.78125 13.136719-31.785156v-92.617188h90.042968v60.027344h30.015626v-60.027344h90.042968v92.617188c0 12.003906 4.664063 23.285156 13.132813 31.785156l26.160156 26.667969zm0 0"/><path d="m141.292969 360.929688h30.015625v60.027343h-30.015625zm0 0"/><path d="m261.351562 360.929688h30.011719v90.042968h-30.011719zm0 0"/></svg>