<?xml version="1.0" encoding="iso-8859-1"?>
<!-- Generator: Adobe Illustrator 19.0.0, SVG Export Plug-In . SVG Version: 6.00 Build 0)  -->
<svg version="1.1" id="Capa_1" xmlns="http://www.w3.org/2000/svg" xmlns:xlink="http://www.w3.org/1999/xlink" x="0px" y="0px"
	 viewBox="0 0 512 512" style="enable-background:new 0 0 512 512;" xml:space="preserve">
<rect x="110.933" y="76.8" style="fill:#082C56;" width="290.133" height="358.4"/>
<path style="fill:#FFFFFF;" d="M289.673,177.169c-4.002-10.615-15.471-23.39-33.673-23.569
	c-18.202,0.179-29.67,12.954-33.673,23.569c-2.236,5.922-3.191,12.373-3.55,18.859c-1.297,23.347-13.978,33.562-13.978,43.802
	c0,7.637,3.422,7.637,7.885,7.637h2.099c3.533,0,3.55,0,7.083,0c3.166,0,17.067,0,17.067,0s-16.154,27.255-28.928,47.642
	C223.599,302.771,239.275,307.2,256,307.2c16.725,0,32.401-4.429,46.003-12.092c-12.783-20.386-28.937-47.642-28.937-47.642
	s13.901,0,17.067,0c3.533,0,3.55,0,7.083,0h2.099c4.463,0,7.885,0,7.885-7.637c0-10.24-12.681-20.454-13.978-43.81
	C292.864,189.542,291.908,183.091,289.673,177.169z"/>
<path style="fill:#EDC300;" d="M349.867,213.333c0-51.84-42.027-93.867-93.867-93.867s-93.867,42.027-93.867,93.867
	c0,35.115,19.311,65.681,47.872,81.775c12.774-20.386,28.928-47.642,28.928-47.642s-13.901,0-17.067,0h-9.182
	c-4.463,0-7.885,0-7.885-7.637c0-10.24,12.681-20.454,13.978-43.81c0.358-6.477,1.314-12.937,3.55-18.859
	c4.002-10.607,15.471-23.381,33.673-23.561c18.202,0.179,29.67,12.954,33.673,23.569c2.236,5.922,3.191,12.373,3.55,18.859
	c1.297,23.347,13.978,33.562,13.978,43.802c0,7.637-3.422,7.637-7.885,7.637h-9.182c-3.166,0-17.067,0-17.067,0
	s16.137,27.221,28.911,47.607C330.539,278.98,349.867,248.448,349.867,213.333z"/>
<path style="fill:#E4EEF0;" d="M373.197,503.467H138.803c-15.394,0-27.87-12.476-27.87-27.87V435.2h290.133v40.397
	C401.067,490.991,388.591,503.467,373.197,503.467z"/>
<g>
	<path style="fill:#ADB9C3;" d="M281.6,477.867h-51.2c-4.71,0-8.533-3.823-8.533-8.533c0-4.71,3.823-8.533,8.533-8.533h51.2
		c4.71,0,8.533,3.823,8.533,8.533C290.133,474.044,286.31,477.867,281.6,477.867z"/>
	<path style="fill:#ADB9C3;" d="M358.4,477.867h-34.133c-4.71,0-8.533-3.823-8.533-8.533c0-4.71,3.823-8.533,8.533-8.533H358.4
		c4.71,0,8.533,3.823,8.533,8.533C366.933,474.044,363.11,477.867,358.4,477.867z"/>
	<path style="fill:#ADB9C3;" d="M187.733,477.867H153.6c-4.71,0-8.533-3.823-8.533-8.533c0-4.71,3.823-8.533,8.533-8.533h34.133
		c4.71,0,8.533,3.823,8.533,8.533C196.267,474.044,192.444,477.867,187.733,477.867z"/>
</g>
<path style="fill:#E4EEF0;" d="M138.803,8.533h234.402c15.386,0,27.861,12.476,27.861,27.87V76.8H110.933V36.403
	C110.933,21.009,123.409,8.533,138.803,8.533z"/>
<path style="fill:#ADB9C3;" d="M298.667,51.2h-85.333c-4.71,0-8.533-3.823-8.533-8.533s3.823-8.533,8.533-8.533h85.333
	c4.71,0,8.533,3.823,8.533,8.533S303.377,51.2,298.667,51.2z"/>
<g>
	<path style="fill:#4D007E;" d="M373.197,512H138.803c-20.07,0-36.403-16.324-36.403-36.403V435.2c0-4.719,3.823-8.533,8.533-8.533
		h290.133c4.719,0,8.533,3.814,8.533,8.533v40.397C409.6,495.676,393.276,512,373.197,512z M119.467,443.733v31.863
		c0,10.658,8.678,19.337,19.337,19.337h234.394c10.658,0,19.337-8.678,19.337-19.337v-31.863H119.467z"/>
	<path style="fill:#4D007E;" d="M281.6,477.867h-51.2c-4.71,0-8.533-3.814-8.533-8.533c0-4.719,3.823-8.533,8.533-8.533h51.2
		c4.719,0,8.533,3.814,8.533,8.533C290.133,474.052,286.319,477.867,281.6,477.867z"/>
	<path style="fill:#4D007E;" d="M358.4,477.867h-34.133c-4.719,0-8.533-3.814-8.533-8.533c0-4.719,3.814-8.533,8.533-8.533H358.4
		c4.719,0,8.533,3.814,8.533,8.533C366.933,474.052,363.119,477.867,358.4,477.867z"/>
	<path style="fill:#4D007E;" d="M187.733,477.867H153.6c-4.71,0-8.533-3.814-8.533-8.533c0-4.719,3.823-8.533,8.533-8.533h34.133
		c4.71,0,8.533,3.814,8.533,8.533C196.267,474.052,192.444,477.867,187.733,477.867z"/>
	<path style="fill:#4D007E;" d="M401.067,85.333H110.933c-4.71,0-8.533-3.823-8.533-8.533V36.403C102.4,16.333,118.733,0,138.803,0
		h234.402c20.07,0,36.395,16.333,36.395,36.403V76.8C409.6,81.51,405.786,85.333,401.067,85.333z M119.467,68.267h273.067V36.403
		c0-10.658-8.67-19.337-19.328-19.337H138.803c-10.658,0-19.337,8.678-19.337,19.337V68.267z"/>
	<path style="fill:#4D007E;" d="M298.667,51.2h-85.333c-4.71,0-8.533-3.823-8.533-8.533s3.823-8.533,8.533-8.533h85.333
		c4.719,0,8.533,3.823,8.533,8.533S303.386,51.2,298.667,51.2z"/>
	<path style="fill:#4D007E;" d="M401.067,443.733H110.933c-4.71,0-8.533-3.814-8.533-8.533V76.8c0-4.71,3.823-8.533,8.533-8.533
		h290.133c4.719,0,8.533,3.823,8.533,8.533v358.4C409.6,439.919,405.786,443.733,401.067,443.733z M119.467,426.667h273.067V85.333
		H119.467V426.667z"/>
	<path style="fill:#4D007E;" d="M443.674,324.454c-0.794,0-1.596-0.111-2.389-0.341c-4.523-1.314-7.117-6.059-5.803-10.581
		c5.436-18.628,8.192-37.982,8.192-57.532c0-19.507-2.731-38.801-8.132-57.353c-1.314-4.523,1.28-9.259,5.811-10.573
		c4.514-1.331,9.259,1.289,10.573,5.811c5.854,20.096,8.815,40.994,8.815,62.114c0,21.171-2.987,42.138-8.875,62.319
		C450.782,322.039,447.377,324.454,443.674,324.454z"/>
	<path style="fill:#4D007E;" d="M68.318,324.454c-3.695,0-7.1-2.415-8.183-6.144c-5.888-20.164-8.875-41.131-8.875-62.319
		c0-21.111,2.97-42.001,8.815-62.114c1.314-4.523,6.05-7.134,10.581-5.811c4.523,1.314,7.125,6.05,5.811,10.581
		c-5.402,18.569-8.141,37.862-8.141,57.353c0,19.567,2.756,38.929,8.192,57.532c1.323,4.523-1.271,9.259-5.803,10.581
		C69.922,324.352,69.111,324.454,68.318,324.454z"/>
	<path style="fill:#4D007E;" d="M25.6,358.4c-3.26,0-6.383-1.886-7.799-5.052C6.323,327.637,0,293.069,0,256
		s6.323-71.637,17.809-97.348c1.911-4.309,6.955-6.246,11.273-4.309c4.301,1.92,6.229,6.972,4.309,11.273
		C22.861,189.184,17.067,221.278,17.067,256c0,34.714,5.794,66.816,16.324,90.385c1.92,4.309-0.009,9.353-4.309,11.273
		C27.947,358.17,26.769,358.4,25.6,358.4z"/>
	<path style="fill:#4D007E;" d="M486.392,358.4c-1.161,0-2.338-0.23-3.465-0.742c-4.309-1.929-6.238-6.963-4.318-11.264
		c10.522-23.586,16.324-55.689,16.324-90.394s-5.803-66.807-16.324-90.385c-1.929-4.301,0.009-9.353,4.318-11.273
		c4.292-1.929,9.353,0.009,11.264,4.309C505.677,184.371,512,218.948,512,256c0,37.06-6.323,71.629-17.809,97.34
		C492.774,356.514,489.66,358.4,486.392,358.4z"/>
	<path style="fill:#4D007E;" d="M332.8,366.933H230.4c-4.71,0-8.533-3.814-8.533-8.533c0-4.719,3.823-8.533,8.533-8.533h102.4
		c4.719,0,8.533,3.814,8.533,8.533C341.333,363.119,337.519,366.933,332.8,366.933z"/>
	<path style="fill:#4D007E;" d="M196.011,366.933H179.2c-4.71,0-8.533-3.814-8.533-8.533c0-4.719,3.823-8.533,8.533-8.533h16.811
		c4.71,0,8.533,3.814,8.533,8.533C204.544,363.119,200.721,366.933,196.011,366.933z"/>
	<path style="fill:#4D007E;" d="M221.867,401.067H179.2c-4.71,0-8.533-3.814-8.533-8.533S174.49,384,179.2,384h42.667
		c4.71,0,8.533,3.814,8.533,8.533S226.577,401.067,221.867,401.067z"/>
	<path style="fill:#4D007E;" d="M332.8,401.067h-25.6c-4.719,0-8.533-3.814-8.533-8.533S302.481,384,307.2,384h25.6
		c4.719,0,8.533,3.814,8.533,8.533S337.519,401.067,332.8,401.067z"/>
	<path style="fill:#4D007E;" d="M273.067,401.067H256c-4.71,0-8.533-3.814-8.533-8.533S251.29,384,256,384h17.067
		c4.719,0,8.533,3.814,8.533,8.533S277.786,401.067,273.067,401.067z"/>
	<path style="fill:#4D007E;" d="M256,315.733c-56.465,0-102.4-45.935-102.4-102.4s45.935-102.4,102.4-102.4
		s102.4,45.935,102.4,102.4S312.465,315.733,256,315.733z M256,128c-47.053,0-85.333,38.281-85.333,85.333
		s38.281,85.333,85.333,85.333s85.333-38.281,85.333-85.333S303.053,128,256,128z"/>
	<path style="fill:#4D007E;" d="M256,315.733c-17.527,0-34.884-4.557-50.185-13.193c-2.031-1.143-3.507-3.072-4.079-5.333
		c-0.572-2.261-0.196-4.659,1.041-6.63c7.083-11.298,15.283-24.849,21.12-34.577h-11.213c-4.062,0-16.418,0-16.418-16.171
		c0-6.281,2.773-11.708,5.717-17.459c3.567-6.98,7.612-14.899,8.277-26.812c0.461-8.337,1.801-15.343,4.087-21.402
		c5.393-14.327,20.343-28.877,41.574-29.09c21.376,0.205,36.335,14.763,41.745,29.09l0,0c2.295,6.067,3.627,13.065,4.087,21.393
		c0.666,11.921,4.71,19.84,8.277,26.829c2.944,5.743,5.717,11.179,5.717,17.451C315.733,256,303.377,256,299.315,256h-11.213
		c5.845,9.728,14.046,23.279,21.137,34.577c1.237,1.971,1.604,4.378,1.041,6.63c-0.572,2.261-2.048,4.19-4.087,5.333
		C290.884,311.177,273.527,315.733,256,315.733z M222.199,291.652c21.308,9.216,46.302,9.216,67.601,0
		c-11.58-18.756-23.936-39.595-24.073-39.834c-1.562-2.637-1.596-5.914-0.077-8.576c1.519-2.662,4.352-4.309,7.415-4.309h25.515
		c-0.375-2.176-1.954-5.274-3.755-8.789c-3.908-7.646-9.259-18.116-10.121-33.647c-0.367-6.562-1.348-11.895-3.021-16.307
		c-2.5-6.647-10.752-17.911-25.771-18.057c-14.865,0.145-23.108,11.409-25.6,18.048c-1.664,4.412-2.654,9.745-3.012,16.324
		c-0.87,15.522-6.221,25.993-10.121,33.638c-1.801,3.516-3.388,6.613-3.763,8.789h25.515c3.063,0,5.897,1.647,7.415,4.309
		c1.519,2.662,1.493,5.939-0.068,8.576C246.135,252.058,233.779,272.887,222.199,291.652z"/>
</g>
<g>
</g>
<g>
</g>
<g>
</g>
<g>
</g>
<g>
</g>
<g>
</g>
<g>
</g>
<g>
</g>
<g>
</g>
<g>
</g>
<g>
</g>
<g>
</g>
<g>
</g>
<g>
</g>
<g>
</g>
</svg>
