<svg xmlns="http://www.w3.org/2000/svg" xmlns:xlink="http://www.w3.org/1999/xlink" xmlns:fi="http://pattern.flaticon.com/" x="0" y="0" width="700" height="350" viewBox="0 0 700 350"><rect x="0px" y="0px" width="100%" height="100%" opacity="1" fill="#ffffff"/><defs><g transform="matrix(0.46875 0 0 0.46875 137.99999964237213 288.0000005435943)" id="L1_0"><path d="m127.4 40.215a1.75 1.75 0 0 0 -2.962-.942l-1.477 1.477a21.034 21.034 0 0 1 -28.718.962l1.157-1.158a1.749 1.749 0 0 0 0-2.475l-3.289-3.279 14.321-14.321a1.749 1.749 0 0 0 0-2.475l-6.958-6.964a1.749 1.749 0 0 0 -2.475 0l-14.321 14.321-3.284-3.284a1.8 1.8 0 0 0 -2.475 0l-2.566 2.566-3.282-3.282a1.753 1.753 0 0 0 -1.4-.506l-7.679.716a1.751 1.751 0 0 0 -1.58 1.58l-.712 7.681a1.75 1.75 0 0 0 .505 1.4l3.282 3.282-2.566 2.566a1.749 1.749 0 0 0 0 2.475l3.279 3.283-63.687 63.688a1.749 1.749 0 0 0 0 2.475l6.959 6.959a1.748 1.748 0 0 0 2.474 0l63.689-63.689 3.284 3.285a1.752 1.752 0 0 0 2.475 0l1.158-1.156a20.993 20.993 0 0 1 4.248 20.1 20.779 20.779 0 0 1 -5.206 8.611l-1.477 1.476a1.751 1.751 0 0 0 .942 2.963 41.833 41.833 0 0 0 48.34-48.34zm-29.164-25.463 4.484 4.484-13.083 13.084-4.484-4.484zm-34.474 10.17 5.416-.5 2.7 2.7-5.92 5.921-2.7-2.7zm-55.053 88.326-4.484-4.484 62.451-62.451 4.484 4.487zm55.92-73.932 13.527-13.527 13.527 13.527-13.527 13.527zm18.4 13.6 8.724-8.725a24.45 24.45 0 0 0 20.647 5.836c-3.213 9.872-11.189 19.9-23.533 23.533a24.464 24.464 0 0 0 -5.834-20.643zm30.244 21.52a38.425 38.425 0 0 1 -30.217 11.1 24.609 24.609 0 0 0 4.763-8.036c12.689-3.212 24.856-13.531 28.522-28.522a24.609 24.609 0 0 0 8.033-4.759 38.429 38.429 0 0 1 -11.097 30.218z"/><path d="m82.308 40.993-5.828-5.828a1.75 1.75 0 0 0 -2.475 2.475l5.828 5.827a1.75 1.75 0 1 0 2.475-2.474z"/></g><path d="m111.485 40.427a1.749 1.749 0 0 0 -1.313-1.481l-32.672-8.134-2.015-1.147.89-1.673a7.487 7.487 0 0 0 -13.006-7.406l-.986 1.619-2.223-1.267a1.75 1.75 0 0 0 -2.387.655l-12.74 22.38a1.749 1.749 0 0 0 .654 2.387l1.484.845-29.539 48.529a10.058 10.058 0 0 0 8.568 15.279 10.1 10.1 0 0 0 2.817-.4 9.968 9.968 0 0 0 6.074-4.934l26.662-50.17 1.274.726 23.663 23.945a1.749 1.749 0 0 0 1.944.374c16.556-7.209 25.099-22.21 22.851-40.127zm-28 31.532-17.206-17.412 11.433-20.076 23.755 5.915c.577 13.663-5.934 25.097-17.979 31.573zm-17.123-49.553a3.987 3.987 0 0 1 6.927 3.944l-.842 1.583-7.017-4zm-6.409 2.44 14.508 8.261-11.013 19.339-14.508-8.261zm-27.953 79.186a6.548 6.548 0 1 1 -11.376-6.478l29.589-48.617 8.5 4.839zm56.324-27.178-2.284-2.312a36.242 36.242 0 0 0 18.952-33.279l3.153.785c1.491 15.371-5.84 28.244-19.821 34.806z" transform="matrix(0.46875 0 0 0.46875 75 222)" id="L1_1"/><path d="m89.645 17.644a1.752 1.752 0 0 0 -1.517-.876h-.008a1.75 1.75 0 0 0 -1.516.89 29.07 29.07 0 0 1 -4.519 6.233 1.6 1.6 0 0 0 -.18.179c-4.14 4.062-8.112 4.067-12.252 4.067h-3.06a39.74 39.74 0 0 0 -1.6-5.981 1.749 1.749 0 0 0 -1.649-1.156h-12.25a1.75 1.75 0 0 0 -1.724 2.051c0 .023.333 1.927.668 5.086h-9.944a1.749 1.749 0 0 0 -1.75 1.75v1.853h-4.938a1.75 1.75 0 0 0 -1.75 1.75v18.375a1.751 1.751 0 0 0 1.75 1.75h4.938v1.853a1.75 1.75 0 0 0 1.75 1.75h9.542a77.21 77.21 0 0 1 -1.736 8.445c-3.2 11.957-.716 18.749 1.69 25.317 1.862 5.082 3.787 10.335 3.258 18.388a1.747 1.747 0 0 0 1.746 1.864h19.5a1.748 1.748 0 0 0 1.692-1.3c.2-.765.842-4.875-6.349-10.628-5.891-4.712-9.405-19.74-6.714-28.714a122.356 122.356 0 0 0 3.142-13.368h3.788c4.14 0 8.113 0 12.252 4.067a1.779 1.779 0 0 0 .179.179 28.985 28.985 0 0 1 4.516 6.232 1.752 1.752 0 0 0 1.516.89h.008a1.752 1.752 0 0 0 1.517-.876 50.275 50.275 0 0 0 .004-50.07zm-36.519 6.856h8.963a37.151 37.151 0 0 1 .938 3.637h-9.47c-.151-1.476-.304-2.705-.431-3.637zm-17.97 25.615v-14.875h3.188v14.875zm24.215 19.466c-3.133 10.446.844 26.824 7.879 32.452 3.16 2.528 4.382 4.5 4.854 5.7h-15.679c.2-7.738-1.706-12.926-3.548-17.956-2.422-6.61-4.514-12.319-1.593-23.206a81.473 81.473 0 0 0 1.888-9.352h9.136a118.577 118.577 0 0 1 -2.937 12.362zm-17.527-15.863v-22.081h27.809c3.81 0 8.229-.019 12.764-3.441a46.458 46.458 0 0 1 0 28.962c-4.535-3.422-8.954-3.44-12.764-3.44zm46.18 9.6a29.477 29.477 0 0 0 -2.8-3.585 49.967 49.967 0 0 0 0-34.114 29.477 29.477 0 0 0 2.8-3.585 46.8 46.8 0 0 1 0 41.285z" transform="matrix(0.46875 0 0 0.46875 100 15)" id="L1_2"/><g transform="matrix(4.862973915924182e-17 0.7941839098930359 -0.7941839098930359 4.862973915924182e-17 241.07150438474275 154.26761228844862)" id="L1_3"><path d="M52.3,12.09l2.23-2.23a1,1,0,0,0,0-1.41L48.87,2.79a1,1,0,0,0-1.41,0L44.69,5.56l-.82-.7a1,1,0,0,0-1.36.05L34,13.4a1,1,0,0,0-.1,1.3l.54.74L24.71,25.3a1,1,0,1,0,1.42,1.41l9.54-9.63,3.74,5.1L27.31,33.78a1,1,0,0,0-.17.21l-5.94,9.89L6.26,58.82,2.18,50.9,21.12,31.76a1,1,0,0,0-1.42-1.41L.25,50a1,1,0,0,0-.18,1.16l5,9.79a1,1,0,0,0,.73.53H6a1,1,0,0,0,.71-.29l16-16a1,1,0,0,0,.15-.19l5.93-9.89L40.6,23.79l8.89,12.12a1,1,0,0,0,.73.41h.08A1,1,0,0,0,51,36L63.72,23.3a1,1,0,0,0-.06-1.47ZM48.17,4.91l4.24,4.24-1.63,1.63L46.21,6.87Zm2.24,28.87L48,30.52l3.82-3.82a1,1,0,0,0-1.41-1.41l-3.6,3.6L36,14.21,43.27,7,57,18.73l-3.35,3.35A1,1,0,1,0,55,23.5L58.5,20l3,2.61Z"/><circle cx="43" cy="13" r="1"/></g><path d="m107.848 48.418c-.286-.287-.512-.439-2.857-1.4a69.235 69.235 0 0 1 -13.644-7.509l.169-.169a6.818 6.818 0 1 0 -9.642-9.642l-.978.978-5.145-4.713a1.748 1.748 0 0 0 -2.419.053l-.96.96-3.4-3.4a1.751 1.751 0 0 0 -2.475 0l-13.322 13.315a1.748 1.748 0 0 0 0 2.474l3.4 3.4-.961.961a1.749 1.749 0 0 0 -.053 2.418l4.713 5.145-40.689 40.694a1.749 1.749 0 0 0 0 2.475l9.972 9.972a1.748 1.748 0 0 0 1.237.512h.1a1.744 1.744 0 0 0 1.27-.66l.657-.828c11.408-14.385 23.637-28.369 36.362-41.61a69.182 69.182 0 0 1 7.435 13.541c1.019 2.475 1.141 2.6 1.4 2.855a3.878 3.878 0 0 0 2.871 1.091 13.3 13.3 0 0 0 6.025-1.987 52.839 52.839 0 0 0 11.229-8.8 52.889 52.889 0 0 0 8.8-11.229c2.308-4.195 2.611-7.187.905-8.897zm-23.499-16.249a3.4 3.4 0 0 1 4.692 0 3.317 3.317 0 0 1 0 4.692l-.522.522c-1.316-1.038-2.6-2.113-3.843-3.248l-1.2-1.1zm-27.462 5.959 10.845-10.846 2.168 2.165-10.849 10.845zm3.4 5.881h.005v-.005l13.308-13.315.005-.006 1.008-1.008 7.69 7.044q2.583 2.365 5.381 4.452l.012.009a72.265 72.265 0 0 0 13.063 7.81c-1.065 2.938-4.138 7.665-9.325 12.853s-9.914 8.26-12.852 9.325a72.321 72.321 0 0 0 -7.754-12.988c-.026-.04-.055-.077-.085-.115-1.391-1.85-2.864-3.64-4.433-5.353l-7.044-7.69zm-29.64 56.557-7.347-7.345 39.343-39.347 1.1 1.2c1.157 1.264 2.257 2.581 3.315 3.926-12.736 13.227-24.981 27.2-36.414 41.566zm65.028-34.5c-7.93 7.928-13.849 10.134-15.07 9.747-.1-.225-.3-.666-.617-1.438 3.888-1.469 9-5.132 13.93-10.062s8.592-10.042 10.062-13.93c.771.321 1.212.514 1.437.617.388 1.234-1.823 7.146-9.745 15.067z" transform="matrix(0.9237889051437378 0 0 0.9237889051437378 279.8775100708008 141.2920016936091)" id="L1_4"/><g transform="matrix(0.07145039638079874 -0.01143206316170294 0.01143206316170294 0.07145039638079874 58.58219496925808 114.43504203832408)" id="L1_5"><path d="m286 421.988h-90c-8.284 0-15 6.716-15 15s6.716 15 15 15h90c8.284 0 15-6.716 15-15s-6.716-15-15-15z"/><path d="m422 376.988c0-8.284-6.716-15-15-15h-91c-8.284 0-15 6.716-15 15s6.716 15 15 15h91c8.284 0 15-6.716 15-15z"/><path d="m508.299 439.892c2.424-10.488 3.701-21.567 3.701-32.904 0-26.969-7.136-52.524-20.093-71.96-14.203-21.305-33.701-33.039-54.903-33.04-.001 0-43.971 0-43.971 0 2.665-18.699 6.272-37.354 10.764-55.778l30.937 14.324c7.498 3.472 16.425.226 19.914-7.31l25.209-54.447c3.48-7.518.208-16.434-7.31-19.914l-40.496-18.75c2.57-6.133 5.236-12.201 8.007-18.187l10.559-22.806c1.671-3.61 1.84-7.736.47-11.471-1.371-3.735-4.169-6.772-7.779-8.443l-81.671-37.813c-7.518-3.481-16.433-.208-19.914 7.31l-10.559 22.806c-2.78 6.004-5.68 11.941-8.659 17.832l-231.042-107.919c-3.613-1.687-7.748-1.867-11.493-.5s-6.792 4.169-8.467 7.788l-25.209 54.447c-3.472 7.499-.225 16.394 7.263 19.892l221.766 103.608c-14.214 19.589-29.674 38.304-46.361 56.025-3.294 3.499-4.713 8.364-3.815 13.085.897 4.721 4.003 8.727 8.352 10.772l75.368 35.449h-233.867c-21.204 0-40.703 11.734-54.907 33.04-12.957 19.436-20.093 44.991-20.093 71.96s7.136 52.524 20.093 71.96c14.204 21.306 33.704 33.04 54.907 33.04h362.004c21.202-.001 40.7-11.735 54.903-33.04 7.448-11.171 12.96-24.372 16.311-38.693.027-.122.057-.241.081-.363zm-61.967-240.108-12.604 27.224-21.964-10.169c2.897-9.672 6.042-19.246 9.42-28.698zm-366.534-137.588 12.604-27.225 215.838 100.816c-5.015 8.739-10.236 17.35-15.702 25.801zm282.848 32.723 54.447 25.209c-2.099 5.47-38.543 74.651-53.313 174.537l-99.136-46.628c66.694-75.853 94.481-146.673 98.002-153.118zm-332.646 312.069c0-40.654 20.607-75 45-75s45 34.346 45 75-20.607 75-45 75-45-34.346-45-75zm407 75h-309.211c.717-.993 1.426-2.001 2.118-3.04 12.957-19.436 20.093-44.991 20.093-71.96 0-5.06-.251-10.07-.745-15h76.745c8.284 0 15-6.716 15-15s-6.716-15-15-15h-83.105c-3.275-9.809-7.624-18.915-12.987-26.96-.692-1.039-1.401-2.047-2.118-3.04h309.21c24.393 0 45 34.346 45 75 0 5.119-.328 10.137-.948 15h-105.052c-8.284 0-15 6.716-15 15s6.716 15 15 15h96.708c-8.303 18.088-21.347 30-35.708 30z"/></g><path d="M388.498,23.437L379.112,3.81c-1.707-3.413-5.973-5.973-10.24-4.267l-46.933,15.36c-1.922,0.641-3.362,1.762-4.322,3.364    C283.459,28.836,248.492,34.53,212.712,34.53h-8.533V8.93c0-5.12-3.413-8.533-8.533-8.533h-68.267    c-5.12,0-8.533,3.413-8.533,8.533v25.6h-8.533c-5.12,0-8.533,3.413-8.533,8.533v153.6c0,5.12,3.413,8.533,8.533,8.533h11.093    l1.707,5.12c7.68,41.813,5.973,93.867-6.827,133.973v0.853c-5.67,28.866-6.974,58.977-4.113,88.642    c-0.1,0.576-0.153,1.18-0.153,1.811c0,1.405,0.265,2.676,0.744,3.789c2.006,17.537,5.463,34.881,10.349,51.678l4.267,15.36    c1.707,3.413,5.12,5.973,8.533,5.973h68.267c2.56,0,5.12-0.853,5.973-2.56c1.707-2.56,2.56-5.12,1.707-7.68l-4.267-15.36    c-12.8-45.227-15.36-92.16-7.68-138.24c13.653-43.52,16.213-98.133,6.827-143.36v0h5.973c36.605,0,72.361,5.098,107.267,16.984    c0.588,0.378,1.235,0.695,1.959,0.936l46.933,15.36c0.853,0.853,1.707,0.853,2.56,0.853c3.413,0,6.827-1.707,7.68-5.12    l9.387-19.627c14.204-30.56,21.233-63.074,21.108-95.571C409.732,86.514,402.703,53.998,388.498,23.437z M373.138,206.903    l-5.973,12.8l-30.47-9.949l3.163-7.117c23.893-52.053,23.893-111.787,0-163.84l-3.413-8.533l30.72-10.24l5.973,12.8    c12.739,27.601,19.134,57.316,19.194,87.04C392.272,149.588,385.877,179.302,373.138,206.903z M135.912,17.463h51.2V34.53h-51.2    V17.463z M191.378,210.317c7.68,41.813,5.973,93.867-6.827,133.973v0.853c-9.387,47.787-6.827,98.987,7.68,145.92l0.853,4.267    h-50.347l-3.413-8.533c-0.803-2.838-1.566-5.683-2.288-8.533h15.942c5.12,0,8.533-3.413,8.533-8.533s-3.413-8.533-8.533-8.533    H133.21c-1.108-5.675-2.054-11.366-2.84-17.067h14.075c5.12,0,8.533-3.413,8.533-8.533s-3.413-8.533-8.533-8.533h-15.941    c-2.104-26.019-0.826-52.108,3.994-77.653c13.653-43.52,16.213-98.133,6.827-143.36c0-0.853,0-0.853,0-0.853h50.347    L191.378,210.317z M195.645,188.13h-68.267h-8.533V51.597h8.533h68.267h17.067c36.6,0,73.195-5.441,107.578-17.033l4.209,9.353    c22.187,47.787,22.187,102.4,0,150.187l-4.603,10.228c-34.958-10.793-70.684-16.202-107.184-16.202H195.645z" transform="matrix(-0.053632686593658614 0.05363268659365862 -0.05363268659365862 -0.053632686593658614 319.34729340496506 309.9651284704837)" id="L1_6"/><path d="M56.341,43.894l-2.625-4.377c-2.491-4.151-5.539-7.01-9.884-9.269l-5.806-2.679c-2.798-1.456-4.164-3.093-5.219-6.26  l-0.356-1.067c1-0.83,2.041-1.684,3.159-2.588l0.079-0.071c2.276-2.277-1.058-8.129-4.232-11.303  c-3.415-3.416-8.494-5.652-10.606-3.536l-2.794,2.794l-1.79-1.97c-0.399-0.439-0.969-0.7-1.563-0.713  c-0.585-0.005-1.175,0.219-1.594,0.639L9.125,7.477c-0.825,0.825-0.856,2.148-0.071,3.012l1.93,2.123l-5.554,5.554l-4.692,2.011  c-0.271,0.116-0.479,0.329-0.586,0.601L0,21.224l0.167,0.382c0.162,0.369,1.657,3.315,1.955,3.901L2.4,26.055h2.451l-0.435,3.479  l0.213,0.313c0.747,1.095,1.427,1.944,2.079,2.596c3.222,3.222,10.594,6.43,10.906,6.564l1.47,0.635l-0.074-1.599  c-0.164-3.556,1.757-6.898,6.003-11.161l0.239,0.717c1.213,3.64,2.95,5.715,6.237,7.422l5.741,2.646  c8.724,4.82,8.106,8.664,8.105,8.675l-0.038,0.152l0.01,0.156c0.314,4.732,2.646,5.92,4.902,7.069  c0.521,0.266,1.061,0.54,1.588,0.863c0.731,0.447,1.245,0.974,1.525,1.566c0.56,1.184,1.681,1.904,2.949,1.904  c0.044,0,0.088-0.001,0.133-0.002c1.281-0.051,2.365-0.841,2.829-2.063C60.173,53.513,61.038,48.661,56.341,43.894z M30.042,7.694  c3.24,3.24,4.991,7.58,4.258,8.447c-8.322,6.726-13.077,10.575-15.84,15.741c-0.88-0.285-1.867-0.775-2.843-1.361l5.074-5.074  l-1.414-1.414l-5.357,5.357c-0.38-0.277-0.741-0.558-1.081-0.839c-0.103-0.085-0.204-0.17-0.302-0.254  c-0.101-0.086-0.2-0.172-0.296-0.258c-0.205-0.185-0.405-0.368-0.583-0.547c-0.03-0.03-0.057-0.064-0.086-0.094l3.172-3.693  l-1.518-1.303l-2.958,3.444c-1.511-2.067-2.579-4.595-2.837-6.855l4.9-4.9l7.073-7.073l2.861-2.861  C23.102,3.32,26.919,4.572,30.042,7.694z M10.533,9.143c-0.065-0.072-0.063-0.183,0.006-0.252l3.983-3.983  c0.043-0.043,0.093-0.053,0.128-0.053c0.037-0.009,0.09,0.01,0.135,0.06l1.854,2.04l-4.241,4.241L10.533,9.143z M17.057,36.553  c-2.257-1.067-6.761-3.351-8.936-5.524c-0.495-0.495-1.042-1.167-1.627-2l0.456-3.644c0.042-0.336-0.062-0.675-0.287-0.929  c-0.224-0.254-0.547-0.4-0.887-0.4H3.628c-0.407-0.803-0.885-1.75-1.22-2.419l3.211-1.376c0.489,2.441,1.699,5.029,3.32,7.134  l-0.02,0.023l0.305,0.356c0.063,0.077,0.129,0.149,0.193,0.225l0.061,0.071c0.25,0.292,0.504,0.579,0.765,0.839  c0.227,0.227,0.478,0.459,0.743,0.695c0.183,0.163,0.379,0.325,0.576,0.489c0.067,0.055,0.131,0.11,0.199,0.165  c0.589,0.478,1.226,0.945,1.895,1.39l0.499,0.338l0.005-0.005c1.185,0.746,2.425,1.382,3.575,1.769  C17.393,34.675,17.155,35.607,17.057,36.553z M57.364,55.279c-0.255,0.672-0.811,0.765-1.038,0.774  c-0.403,0.011-0.919-0.175-1.196-0.758c-0.45-0.951-1.221-1.765-2.29-2.418c-0.594-0.363-1.168-0.656-1.724-0.939  c-2.127-1.084-3.542-1.804-3.805-5.296c0.164-1.055,0.22-5.567-9.18-10.758l-5.763-2.658c-2.798-1.455-4.164-3.093-5.22-6.259  l-0.476-1.428l-0.125-0.125c1.269-1.182,2.674-2.43,4.257-3.78l0.103,0.309c1.213,3.639,2.949,5.714,6.236,7.422l5.785,2.669  c3.987,2.078,6.786,4.704,9.071,8.513l2.688,4.48l0.15,0.192C58.639,49.019,58.309,52.788,57.364,55.279z" transform="matrix(1.0004335641860962 0 0 1.0004335641860962 223 31)" id="L1_7"/></defs><g fi:class="KUsePattern" opacity="0.04"><pattern id="pattern_L1_0" width="350" height="350" patternUnits="userSpaceOnUse"><use xlink:href="#L1_0" x="-350" y="-350"/><use xlink:href="#L1_0" x="0" y="-350"/><use xlink:href="#L1_0" x="350" y="-350"/><use xlink:href="#L1_0" x="-350" y="0"/><use xlink:href="#L1_0" x="0" y="0"/><use xlink:href="#L1_0" x="350" y="0"/><use xlink:href="#L1_0" x="-350" y="350"/><use xlink:href="#L1_0" x="0" y="350"/><use xlink:href="#L1_0" x="350" y="350"/></pattern><rect x="0" y="0" width="100%" height="100%" fill="url(#pattern_L1_0)"/></g><g fi:class="KUsePattern" opacity="0.05"><pattern id="pattern_L1_1" width="350" height="350" patternUnits="userSpaceOnUse"><use xlink:href="#L1_1" x="-350" y="-350"/><use xlink:href="#L1_1" x="0" y="-350"/><use xlink:href="#L1_1" x="350" y="-350"/><use xlink:href="#L1_1" x="-350" y="0"/><use xlink:href="#L1_1" x="0" y="0"/><use xlink:href="#L1_1" x="350" y="0"/><use xlink:href="#L1_1" x="-350" y="350"/><use xlink:href="#L1_1" x="0" y="350"/><use xlink:href="#L1_1" x="350" y="350"/></pattern><rect x="0" y="0" width="100%" height="100%" fill="url(#pattern_L1_1)"/></g><g fi:class="KUsePattern" opacity="0.06"><pattern id="pattern_L1_2" width="350" height="350" patternUnits="userSpaceOnUse"><use xlink:href="#L1_2" x="-350" y="-350"/><use xlink:href="#L1_2" x="0" y="-350"/><use xlink:href="#L1_2" x="350" y="-350"/><use xlink:href="#L1_2" x="-350" y="0"/><use xlink:href="#L1_2" x="0" y="0"/><use xlink:href="#L1_2" x="350" y="0"/><use xlink:href="#L1_2" x="-350" y="350"/><use xlink:href="#L1_2" x="0" y="350"/><use xlink:href="#L1_2" x="350" y="350"/></pattern><rect x="0" y="0" width="100%" height="100%" fill="url(#pattern_L1_2)"/></g><g fi:class="KUsePattern" opacity="0.05"><pattern id="pattern_L1_3" width="350" height="350" patternUnits="userSpaceOnUse"><use xlink:href="#L1_3" x="-350" y="-350"/><use xlink:href="#L1_3" x="0" y="-350"/><use xlink:href="#L1_3" x="350" y="-350"/><use xlink:href="#L1_3" x="-350" y="0"/><use xlink:href="#L1_3" x="0" y="0"/><use xlink:href="#L1_3" x="350" y="0"/><use xlink:href="#L1_3" x="-350" y="350"/><use xlink:href="#L1_3" x="0" y="350"/><use xlink:href="#L1_3" x="350" y="350"/></pattern><rect x="0" y="0" width="100%" height="100%" fill="url(#pattern_L1_3)"/></g><g fi:class="KUsePattern" opacity="0.03"><pattern id="pattern_L1_4" width="350" height="350" patternUnits="userSpaceOnUse"><use xlink:href="#L1_4" x="-350" y="-350"/><use xlink:href="#L1_4" x="0" y="-350"/><use xlink:href="#L1_4" x="350" y="-350"/><use xlink:href="#L1_4" x="-350" y="0"/><use xlink:href="#L1_4" x="0" y="0"/><use xlink:href="#L1_4" x="350" y="0"/><use xlink:href="#L1_4" x="-350" y="350"/><use xlink:href="#L1_4" x="0" y="350"/><use xlink:href="#L1_4" x="350" y="350"/></pattern><rect x="0" y="0" width="100%" height="100%" fill="url(#pattern_L1_4)"/></g><g fi:class="KUsePattern" opacity="0.04"><pattern id="pattern_L1_5" width="350" height="350" patternUnits="userSpaceOnUse"><use xlink:href="#L1_5" x="-350" y="-350"/><use xlink:href="#L1_5" x="0" y="-350"/><use xlink:href="#L1_5" x="350" y="-350"/><use xlink:href="#L1_5" x="-350" y="0"/><use xlink:href="#L1_5" x="0" y="0"/><use xlink:href="#L1_5" x="350" y="0"/><use xlink:href="#L1_5" x="-350" y="350"/><use xlink:href="#L1_5" x="0" y="350"/><use xlink:href="#L1_5" x="350" y="350"/></pattern><rect x="0" y="0" width="100%" height="100%" fill="url(#pattern_L1_5)"/></g><g fi:class="KUsePattern" opacity="0.06"><pattern id="pattern_L1_6" width="350" height="350" patternUnits="userSpaceOnUse"><use xlink:href="#L1_6" x="-350" y="-350"/><use xlink:href="#L1_6" x="0" y="-350"/><use xlink:href="#L1_6" x="350" y="-350"/><use xlink:href="#L1_6" x="-350" y="0"/><use xlink:href="#L1_6" x="0" y="0"/><use xlink:href="#L1_6" x="350" y="0"/><use xlink:href="#L1_6" x="-350" y="350"/><use xlink:href="#L1_6" x="0" y="350"/><use xlink:href="#L1_6" x="350" y="350"/></pattern><rect x="0" y="0" width="100%" height="100%" fill="url(#pattern_L1_6)"/></g><g fi:class="KUsePattern" opacity="0.05"><pattern id="pattern_L1_7" width="350" height="350" patternUnits="userSpaceOnUse"><use xlink:href="#L1_7" x="-350" y="-350"/><use xlink:href="#L1_7" x="0" y="-350"/><use xlink:href="#L1_7" x="350" y="-350"/><use xlink:href="#L1_7" x="-350" y="0"/><use xlink:href="#L1_7" x="0" y="0"/><use xlink:href="#L1_7" x="350" y="0"/><use xlink:href="#L1_7" x="-350" y="350"/><use xlink:href="#L1_7" x="0" y="350"/><use xlink:href="#L1_7" x="350" y="350"/></pattern><rect x="0" y="0" width="100%" height="100%" fill="url(#pattern_L1_7)"/></g></svg>